<svg xmlns="http://www.w3.org/2000/svg" xmlns:xlink="http://www.w3.org/1999/xlink" width="674.304" height="375.848" viewBox="0 0 674.304 375.848">
  <defs>
    <linearGradient id="linear-gradient" y1="0.5" x2="1" y2="0.5" gradientUnits="objectBoundingBox">
      <stop offset="0" stop-color="#ccc"/>
      <stop offset="1" stop-color="#fff" stop-opacity="0"/>
    </linearGradient>
  </defs>
  <path id="Path_19" data-name="Path 19" d="M7791.275,2627.991l-.042.03-.013.009Zm-201.822,43.392a187.511,187.511,0,0,0,297.076,63.13l6.275-5.807,17.635-17.9-14.94-14.886-13.455,13.708-9.759,9.3a166.586,166.586,0,1,1-10.594-256.24l.355.266a102.091,102.091,0,0,1,9.451,7.863l81.631,80.757,74.9,74.638a12.365,12.365,0,0,0,1.507,1.309l.435.351h0a15.908,15.908,0,0,0,3.269,2.736,43.589,43.589,0,0,0,14.092,7.057,44.655,44.655,0,0,0,32.96-3.184,45.262,45.262,0,0,0,13.176-10.443,44.438,44.438,0,0,0,8.4-14.248,45.179,45.179,0,0,0-1.081-33.007,46.121,46.121,0,0,0-9.481-13.919,44.678,44.678,0,0,0-61.322-1.389,4.215,4.215,0,0,1-.553.452h0a16.455,16.455,0,0,0-1.972,1.8l-16,16.17-10.355-10.321L8011.572,2559c3.108-3.155,6.985-7.082,8.535-8.328l.41-.346a58.675,58.675,0,0,1,19.037-11.368,60.166,60.166,0,0,1,43.657,1.2,59.353,59.353,0,0,1-39.772,111.6,58.425,58.425,0,0,1-19.882-10.148c-3.463-2.584-10.633-9.772-16.96-16.115-2.5-2.508-5.017-5.025-7.369-7.339l-56.423-56.225-73.911-73.645c-.625-.65-1.634-1.6-2.694-2.563l-4.865-4.383a86.6,86.6,0,0,0-8.682-7.154A151.94,151.94,0,1,0,7862.569,2708l5-4.6,17.559-17.813-14.941-14.89-13.585,13.839-8.256,7.863a130.861,130.861,0,1,1-8.311-201.29l.444.321a67.649,67.649,0,0,1,6.714,5.579c.819.743,1.647,1.486,2.352,2.1l2.458,2.23c.638.583,1.263,1.14,1.808,1.714l74.093,73.827,56.474,56.276c2.356,2.314,4.823,4.785,7.276,7.247,7.5,7.513,14.582,14.616,19.109,17.994a79.055,79.055,0,0,0,26.8,13.632,80.463,80.463,0,1,0-30.887-137.645c-2.513,2.057-6.216,5.819-10.135,9.789l-10.389,10.5-10.351-10.317,7.149-7.226q1.908-1.906,3.8-3.834c3.36-3.421,6.537-6.651,10.021-9.666a95.142,95.142,0,1,1,5.2,146.45c-6.875-5.456-13.1-11.732-19.683-18.383-2.775-2.8-5.549-5.6-8.273-8.235l-56.424-56.229-56.533-56.327c-2.665-2.58-5.275-5.215-7.889-7.855-6.807-6.875-13.851-13.982-21.951-20.287a116.174,116.174,0,1,0-29.9,201.344,114.735,114.735,0,0,0,37.078-22.42c3.856-3.345,7.31-6.9,10.651-10.334,1.355-1.385,2.7-2.775,4.155-4.223l6.631-6.753-14.959-14.907-6.659,6.786c-1.448,1.444-2.875,2.91-4.3,4.375-3.172,3.26-6.167,6.339-9.5,9.227a95.12,95.12,0,1,1-6.1-146.382c6.96,5.418,13.222,11.74,19.852,18.434,2.715,2.741,5.427,5.477,8.086,8.053l56.433,56.225,56.525,56.331c2.728,2.639,5.406,5.342,8.079,8.041,6.731,6.8,13.7,13.818,21.643,20.127a116.21,116.21,0,1,0-6.087-178.929c-4.016,3.471-7.644,7.162-11.157,10.735-1.212,1.229-2.42,2.462-3.7,3.729l-7.15,7.23-10.35-10.317,7.065-7.141c1.436-1.419,2.749-2.766,4.075-4.117,3.243-3.315,6.309-6.449,11.381-10.938a130.881,130.881,0,1,1,7.036,201.357l-.494-.363a58.274,58.274,0,0,1-6.035-5.068c-1.034-.946-2.065-1.888-3.036-2.728-2.614-2.331-4.282-4.008-5.933-5.659l-72.179-71.936-73.89-73.628a23.913,23.913,0,0,0-2.12-1.981l-1.41-1.229c-.427-.355-.832-.743-1.246-1.123a31.891,31.891,0,0,0-4.515-3.687,79.114,79.114,0,0,0-26.519-13.163,80.325,80.325,0,0,0-21.864-3.017,79.191,79.191,0,0,0-37.146,9.139,80.626,80.626,0,0,0-36.263,103.97c8.075,18.493,23.919,34.037,42.255,41.529a80.312,80.312,0,0,0,84.925-14.3l2.445-2.179c.321-.275.642-.549,1.157-1.068l16.343-16.647-4.286-4.269,22.006,21.93,70.537,70.283,9.329,8.965c1.026.9,2.031,1.816,3.041,2.732a108.386,108.386,0,0,0,10.325,8.615c82.131,63.216,199.957,47.882,263.172-34.248S8256.529,2509.215,8174.4,2446a187.66,187.66,0,0,0-239.3,8.6l-6.254,5.748-18.594,18.687-16.394-16.335-8.231-7.58a122.77,122.77,0,0,0-11.271-9.329c-82.54-62.643-200.235-46.514-262.879,36.027a187.622,187.622,0,0,0-22.021,189.573Zm453.184-92.963c.667-.519,1.292-1.056,1.634-1.389a23.309,23.309,0,0,1,7.538-4.5,24,24,0,0,1,17.339.473,23.646,23.646,0,0,1,7.234,4.789,24.624,24.624,0,0,1,5.085,7.487,24.016,24.016,0,0,1,.549,17.344,23.167,23.167,0,0,1-4.451,7.538,24.355,24.355,0,0,1-7.091,5.638,23.3,23.3,0,0,1-24.9-2.335l-.65-.5a16.028,16.028,0,0,0-2.023-1.778l-.047-.038c-.08-.063-.148-.127-.22-.182l-16.212-16.157ZM7939.3,2479.654l9.954-9.4a166.608,166.608,0,1,1,8.961,256.324l-.388-.287a90.688,90.688,0,0,1-8.484-7.12c-1.077-.984-2.162-1.968-3.091-2.787l-79.106-78.523-70.474-70.224-3.826-3.817a17.429,17.429,0,0,0-1.677-1.482l-.874-.7c.157.123.27.215.241.169a16.521,16.521,0,0,0-3.23-2.652,43.652,43.652,0,0,0-14.211-7,44.561,44.561,0,0,0-12.243-1.689,43.606,43.606,0,0,0-20.667,5.059,45.393,45.393,0,0,0-13.113,10.549,44.4,44.4,0,0,0-8.29,14.291,45.033,45.033,0,0,0,1.229,32.864c4.409,10.338,13.509,19.261,23.476,23.176a45.2,45.2,0,0,0,33,.684,44.739,44.739,0,0,0,14.312-8.716,3.872,3.872,0,0,1,.338-.291c-.169.127-.321.224-.469.321l.557-.389,17.977-18.087,10.364,10.328-13.852,14.109-5.232,4.975a59.269,59.269,0,0,1-18.958,11.481,60.179,60.179,0,0,1-43.759-.963,59.347,59.347,0,0,1,39.172-111.8,58.052,58.052,0,0,1,19.781,9.89l.916.629a16.582,16.582,0,0,1,1.655,1.444c.693.646,1.39,1.288,1.943,1.748l1.423,1.233a9.125,9.125,0,0,1,.777.731l74.034,73.77,72.146,71.892c1.9,1.9,3.826,3.83,6.93,6.588.921.807,1.824,1.634,2.728,2.462a79.377,79.377,0,0,0,8.074,6.715A151.9,151.9,0,1,0,7959,2481.154c-5.612,4.97-9.092,8.522-12.454,11.955-1.246,1.275-2.483,2.542-3.915,3.957l-7.095,7.166-10.352-10.312Zm-145.052,115.377-16.14,16.444c-.583.456-1.123.916-1.554,1.322a23.4,23.4,0,0,1-7.488,4.531,24.178,24.178,0,0,1-17.576-.456,23.48,23.48,0,0,1-12.15-12.124,23.947,23.947,0,0,1-.655-17.336,23.034,23.034,0,0,1,4.392-7.568,24.319,24.319,0,0,1,7.061-5.693,23.592,23.592,0,0,1,17.175-1.681,22.756,22.756,0,0,1,7.728,3.889l.773.6a16.615,16.615,0,0,0,1.525,1.364Z" transform="translate(-7573.302 -2407.05)" fill="url(#linear-gradient)"/>
</svg>
